#!OML:ASF F:\VICON\USERDATA\INSTALL\rory3\rory3.ASF
:FULLY-SPECIFIED
:DEGREES
837
root -1.44153 25.1903 0.240064 -1.75063 5.41525 0.404435
lowerback 5.45064 -0.065203 -2.47369
upperback 1.97497 -0.178386 2.46399
thorax -1.00581 -0.100431 3.9432
lowerneck -11.4184 1.77015 -9.19892
upperneck 43.3327 5.53119 0.9169
head 17.7854 0.925729 3.0696
rclavicle -1.89342e-014 0
rhumerus -31.5748 -9.47716 -78.6224
rradius 36.1852
rwrist 19.9908
rhand -20.4747 1.60797
rfingers 7.12502
rthumb 5.88153 -28.2904
lclavicle -1.89342e-014 0
lhumerus -34.0113 11.1049 81.7139
lradius 32.6607
lwrist -5.28665
lhand -12.1768 27.9998
lfingers 7.12502
lthumb 13.8867 57.5162
rfemur -7.33631 -0.384154 27.9437
rtibia 23.5391
rfoot -10.7792 -5.90421
rtoes 13.3654
lfemur -39.9321 0.539851 -16.5983
ltibia 90.6859
lfoot -10.1036 -7.75522
ltoes -17.8225
838
root -1.43884 25.1715 0.269505 -1.70079 5.18174 0.441656
lowerback 5.44453 0.039279 -2.40074
upperback 1.99874 -0.0363473 2.40347
thorax -0.990555 -0.02965 3.83001
lowerneck -11.4118 1.73297 -9.24066
upperneck 43.1834 5.47333 0.917649
head 17.6974 0.904525 3.06186
rclavicle -1.51573e-014 2.14687e-014
rhumerus -31.6123 -9.1265 -78.7632
rradius 36.4187
rwrist 19.6913
rhand -19.585 1.07927
rfingers 7.12502
rthumb 6.74043 -28.7934
lclavicle -1.51573e-014 2.14687e-014
lhumerus -33.9837 10.9222 81.6938
lradius 32.9424
lwrist -5.10387
lhand -12.3149 27.6979
lfingers 7.12502
lthumb 13.7535 57.2233
rfemur -7.54708 -0.392197 27.9122
rtibia 24.0581
rfoot -10.8911 -5.62768
rtoes 12.4753
lfemur -39.9975 0.122694 -16.5716
ltibia 88.6433
lfoot -9.24191 -7.9684
ltoes -17.8196
839
root -1.43391 25.153 0.302907 -1.67711 4.94428 0.498531
lowerback 5.4639 0.119148 -2.36753
upperback 2.01833 0.0709171 2.37374
thorax -0.990239 0.0238761 3.77365
lowerneck -11.5045 1.69842 -9.29365
upperneck 43.1611 5.46487 0.876491
head 17.7119 0.88606 3.05294
rclavicle -1.81888e-014 3.18055e-015
rhumerus -31.7261 -8.80431 -78.8665
rradius 36.7394
rwrist 19.4359
rhand -18.9867 0.807473
rfingers 7.12502
rthumb 7.31803 -29.046
lclavicle -1.81888e-014 3.18055e-015
lhumerus -34.0447 10.7214 81.7344
lradius 33.3468
lwrist -4.76792
lhand -12.189 27.6272
lfingers 7.12502
lthumb 13.8748 57.1443
rfemur -7.75976 -0.43052 27.8394
rtibia 24.7257
rfoot -11.2077 -5.23523
rtoes 12.8672
lfemur -39.9128 -0.33061 -16.574
ltibia 86.4767
lfoot -8.18081 -8.16051
ltoes -18.159
840
root -1.42823 25.1361 0.333938 -1.63463 4.82726 0.551452
lowerback 5.48076 0.15847 -2.29635
upperback 2.03588 0.12595 2.32556
thorax -0.98608 0.0513946 3.67987
lowerneck -11.6196 1.67551 -9.31222
upperneck 43.1381 5.44831 0.878231
head 17.7295 0.875457 3.0571
rclavicle -8.54774e-015 3.97569e-015
rhumerus -31.8737 -8.48642 -78.9722
rradius 37.0388
rwrist 19.3203
rhand -19.0271 1.04835
rfingers 7.12502
rthumb 7.27896 -28.8064
lclavicle -8.54774e-015 3.97569e-015
lhumerus -34.0299 10.6448 81.7222
lradius 33.633
lwrist -4.61667
lhand -12.1327 28.0237
lfingers 7.12502
lthumb 13.9291 57.5371
rfemur -7.99221 -0.498412 27.7523
rtibia 25.4399
rfoot -11.6672 -4.80045
rtoes 13.6113
lfemur -39.8038 -0.910095 -16.5933
ltibia 84.2044
lfoot -6.961 -8.29754
ltoes -19.1237
841
root -1.42489 25.1144 0.362163 -1.60153 4.75778 0.649033
lowerback 5.50324 0.21046 -2.28532
upperback 2.0629 0.1945 2.26842
thorax -0.976194 0.085327 3.61002
lowerneck -11.7195 1.62267 -9.42651
upperneck 43.1056 5.37515 0.968619
head 17.7337 0.839867 3.10903
rclavicle 4.22417e-015 -7.95139e-015
rhumerus -31.9277 -7.90726 -79.1258
rradius 37.2345
rwrist 18.7941
rhand -19.3441 1.35755
rfingers 7.12502
rthumb 6.97298 -28.5076
lclavicle 4.22417e-015 -7.95139e-015
lhumerus -34.0003 10.6363 81.6802
lradius 33.8537
lwrist -4.54292
lhand -12.1153 28.2143
lfingers 7.12502
lthumb 13.9458 57.7266
rfemur -8.2419 -0.632263 27.6273
rtibia 26.1426
rfoot -12.1204 -4.41973
rtoes 13.8256
lfemur -39.6705 -1.48411 -16.6566
ltibia 81.8586
lfoot -5.49009 -8.3692
ltoes -20.5943
842
root -1.41937 25.093 0.39478 -1.53506 4.48504 0.756719
lowerback 5.49668 0.302158 -2.28208
upperback 2.02645 0.316358 2.22238
thorax -1.01957 0.147578 3.5527
lowerneck -11.7055 1.62249 -9.50259
upperneck 43.1043 5.37412 1.02178
head 17.7242 0.835094 3.14634
rclavicle -1.60519e-014 -1.90833e-014
rhumerus -32.086 -7.0442 -79.3099
rradius 37.4897
rwrist 18.0661
rhand -19.4256 1.337
rfingers 7.12502
rthumb 6.89436 -28.5307
lclavicle -1.60519e-014 -1.90833e-014
lhumerus -34.1469 10.6683 81.5973
lradius 34.0932
lwrist -4.39992
lhand -12.1218 28.1344
lfingers 7.12502
lthumb 13.9397 57.6471
rfemur -8.52049 -0.539155 27.5065
rtibia 26.8348
rfoot -12.5635 -4.08999
rtoes 13.9206
lfemur -39.4837 -1.84004 -16.7133
ltibia 79.4369
lfoot -3.85897 -8.50917
ltoes -21.6749
843
root -1.41188 25.0783 0.429721 -1.4183 4.17515 0.79631
lowerback 5.43066 0.398478 -2.15226
upperback 1.99003 0.451453 2.15842
thorax -1.02969 0.216206 3.40441
lowerneck -11.753 1.64788 -9.33144
upperneck 43.1371 5.43017 0.884359
head 17.7652 0.863826 3.06484
rclavicle -5.1684e-015 -2.46493e-014
rhumerus -32.248 -6.63445 -79.4393
rradius 37.7696
rwrist 17.7986
rhand -19.3954 1.12735
rfingers 7.12502
rthumb 6.92345 -28.7394
lclavicle -5.1684e-015 -2.46493e-014
lhumerus -34.1887 10.6471 81.5063
lradius 34.235
lwrist -4.1857
lhand -12.1206 27.8574
lfingers 7.12502
lthumb 13.9407 57.3701
rfemur -8.87347 -0.417138 27.4544
rtibia 27.567
rfoot -12.9811 -3.77616
rtoes 14.2339
lfemur -39.2714 -2.21879 -16.68
ltibia 76.9291
lfoot -1.96075 -8.63678
ltoes -21.8088
844
root -1.40491 25.0578 0.458693 -1.28608 3.94522 0.757094
lowerback 5.34244 0.484575 -1.94751
upperback 1.98947 0.57676 2.10103
thorax -0.988322 0.278864 3.22166
lowerneck -11.7932 1.65842 -9.1941
upperneck 43.0999 5.44126 0.806371
head 17.7605 0.881483 3.00647
rclavicle -6.26172e-015 -1.11319e-014
rhumerus -32.2479 -6.61951 -79.5017
rradius 37.9111
rwrist 17.8827
rhand -19.4962 1.17044
rfingers 7.12502
rthumb 6.82615 -28.6995
lclavicle -6.26172e-015 -1.11319e-014
lhumerus -34.0292 10.6043 81.4171
lradius 34.2244
lwrist -4.01292
lhand -12.1371 28.0912
lfingers 7.12502
lthumb 13.9249 57.6049
rfemur -9.26797 -0.41963 27.4841
rtibia 28.2672
rfoot -13.2685 -3.47935
rtoes 14.1246
lfemur -39.0801 -2.66431 -16.5495
ltibia 74.3867
lfoot 0.0639103 -8.74242
ltoes -21.2367
845
root -1.39997 25.0305 0.485892 -1.22175 3.64504 0.808051
lowerback 5.3851 0.57727 -1.8989
upperback 1.9597 0.702181 2.08876
thorax -1.05092 0.342913 3.17325
lowerneck -11.758 1.68119 -9.28246
upperneck 43.0322 5.4806 0.837052
head 17.7038 0.892542 3.03899
rclavicle -2.5842e-015 2.38542e-015
rhumerus -32.2522 -6.2773 -79.5149
rradius 37.9684
rwrist 17.7003
rhand -19.6062 1.38403
rfingers 7.12502
rthumb 6.71999 -28.4893
lclavicle -2.5842e-015 2.38542e-015
lhumerus -34.006 10.7362 81.3325
lradius 34.2261
lwrist -3.8832
lhand -12.0254 28.701
lfingers 7.12502
lthumb 14.0325 58.2073
rfemur -9.57101 -0.424951 27.4261
rtibia 28.9215
rfoot -13.6593 -3.14787
rtoes 14.4219
lfemur -38.779 -2.99339 -16.5226
ltibia 71.816
lfoot 1.95773 -8.76458
ltoes -21.3352
846
root -1.39449 25.0025 0.518711 -1.23985 3.36166 0.867539
lowerback 5.46824 0.649439 -1.80589
upperback 1.93672 0.801438 2.02839
thorax -1.12583 0.394045 3.05114
lowerneck -11.6757 1.71858 -9.20182
upperneck 42.9678 5.52054 0.779471
head 17.646 0.919063 2.99964
rclavicle -6.21202e-015 7.95139e-016
rhumerus -32.2418 -6.02025 -79.5929
rradius 37.9924
rwrist 17.5103
rhand -19.5785 1.2606
rfingers 7.12502
rthumb 6.74676 -28.6119
lclavicle -6.21202e-015 7.95139e-016
lhumerus -34.0737 10.7503 81.1527
lradius 34.2282
lwrist -3.77742
lhand -12.1671 28.2756
lfingers 7.12502
lthumb 13.896 57.7914
rfemur -9.7502 -0.359042 27.3729
rtibia 29.5805
rfoot -14.8481 -2.68863
rtoes 20.2889
lfemur -38.3358 -3.33542 -16.5198
ltibia 69.2297
lfoot 3.57582 -8.55223
ltoes -21.8962
847
root -1.38874 24.9767 0.552866 -1.18984 3.21491 0.835052
lowerback 5.39736 0.677012 -1.64388
upperback 1.93915 0.846621 1.99525
thorax -1.08425 0.416389 2.92311
lowerneck -11.7292 1.72732 -9.07792
upperneck 42.9943 5.5296 0.720538
head 17.6816 0.931613 2.95485
rclavicle 7.45443e-015 2.46493e-014
rhumerus -32.1804 -5.91487 -79.65
rradius 38.0443
rwrist 17.4282
rhand -19.5801 1.28321
rfingers 7.12502
rthumb 6.74519 -28.5893
lclavicle 7.45443e-015 2.46493e-014
lhumerus -34.019 10.753 81.0196
lradius 34.1721
lwrist -3.60198
lhand -12.6797 27.0001
lfingers 7.12502
lthumb 13.402 56.549
rfemur -9.99612 -0.332259 27.4224
rtibia 30.256
rfoot -15.4687 -2.3718
rtoes 21.3903
lfemur -37.9365 -3.74521 -16.4273
ltibia 66.6234
lfoot 5.05797 -8.46985
ltoes -23.1524
848
root -1.38213 24.95 0.586968 -1.11567 3.02692 0.879239
lowerback 5.29819 0.712448 -1.62721
upperback 1.96194 0.895807 2.03725
thorax -1.00906 0.439758 2.95506
lowerneck -11.8469 1.71277 -9.26132
upperneck 43.0192 5.55962 0.771068
head 17.7191 0.91746 3.02
rclavicle -1.23246e-014 2.78299e-014
rhumerus -32.0802 -5.78026 -79.5342
rradius 38.121
rwrist 17.4938
rhand -19.3879 1.43433
rfingers 7.12502
rthumb 6.93068 -28.4322
lclavicle -1.23246e-014 2.78299e-014
lhumerus -33.9633 10.8849 81.0571
lradius 34.1509
lwrist -3.41941
lhand -12.9784 26.4054
lfingers 7.12502
lthumb 13.114 55.973
rfemur -10.2496 -0.28076 27.3858
rtibia 30.9146
rfoot -15.7626 -2.16163
rtoes 19.9713
lfemur -37.4682 -4.10774 -16.4307
ltibia 63.9926
lfoot 6.64739 -8.41521
ltoes -23.5305
849
root -1.37489 24.9254 0.624 -1.09285 2.72267 1.04507
lowerback 5.2619 0.735707 -1.76059
upperback 1.9665 0.920816 2.07686
thorax -0.988277 0.45152 3.07013
lowerneck -11.8738 1.78489 -9.36648
upperneck 43.0424 5.72874 0.720805
head 17.7298 0.960052 3.0446
rclavicle 1.04859e-014 5.56597e-015
rhumerus -31.978 -5.40392 -79.4543
rradius 38.1505
rwrist 17.4914
rhand -19.2671 1.53126
rfingers 7.12502
rthumb 7.04737 -28.3314
lclavicle 1.04859e-014 5.56597e-015
lhumerus -33.9896 11.1727 81.0413
lradius 34.0606
lwrist -3.38312
lhand -13.0042 26.7217
lfingers 7.12502
lthumb 13.0891 56.291
rfemur -10.4375 -0.194794 27.2048
rtibia 31.5565
rfoot -16.0284 -1.87592
rtoes 19.1693
lfemur -36.864 -4.35924 -16.5867
ltibia 61.3652
lfoot 8.23657 -8.23736
ltoes -22.1343
850
root -1.36896 24.8988 0.658893 -1.10454 2.50243 1.09356
lowerback 5.28363 0.768995 -1.73313
upperback 1.9333 0.966778 2.09505
thorax -1.03747 0.475506 3.07012
lowerneck -11.7801 1.84774 -9.37696
upperneck 43.0845 5.82768 0.700761
head 17.7242 0.995484 3.05189
rclavicle -1.42131e-014 1.59028e-015
rhumerus -31.9664 -5.24535 -79.3788
rradius 38.1167
rwrist 17.4882
rhand -19.3551 1.62991
rfingers 7.12502
rthumb 6.96234 -28.2356
lclavicle -1.42131e-014 1.59028e-015
lhumerus -34.0612 11.3187 80.9754
lradius 33.9713
lwrist -3.46422
lhand -12.9667 27.0968
lfingers 7.12502
lthumb 13.1252 56.6637
rfemur -10.6059 -0.137969 27.1539
rtibia 32.2191
rfoot -16.3829 -1.57567
rtoes 19.1161
lfemur -36.2598 -4.6647 -16.6168
ltibia 58.7778
lfoot 9.47724 -8.13072
ltoes -21.7184
851
root -1.3648 24.869 0.691916 -1.1134 2.35308 1.01127
lowerback 5.2427 0.803323 -1.55626
upperback 1.94336 1.02199 2.12844
thorax -1.00571 0.502902 3.00187
lowerneck -11.6409 1.83515 -9.44586
upperneck 42.9638 5.81182 0.667797
head 17.618 0.983571 3.03696
rclavicle 1.98785e-016 1.74931e-014
rhumerus -31.8959 -5.10081 -79.3041
rradius 38.1043
rwrist 17.488
rhand -19.3959 1.45067
rfingers 7.12502
rthumb 6.92304 -28.4161
lclavicle 1.98785e-016 1.74931e-014
lhumerus -34.0354 11.4601 80.8994
lradius 33.7576
lwrist -3.56066
lhand -13.0201 27.2339
lfingers 7.12502
lthumb 13.0738 56.8042
rfemur -10.7907 -0.156505 27.2631
rtibia 32.8932
rfoot -16.7987 -1.32679
rtoes 18.7863
lfemur -35.6983 -4.98089 -16.5068
ltibia 56.2514
lfoot 10.5317 -8.09433
ltoes -22.0656
